<svg xmlns="http://www.w3.org/2000/svg" viewBox="0 0 64 64" role="img" aria-label="Disco ball favicon">
  <defs>
    <radialGradient id="bgGlow" cx="32" cy="26" r="30" gradientUnits="userSpaceOnUse">
      <stop offset="0" stop-color="#d7eeff"/>
      <stop offset="0.55" stop-color="#8ec2ff"/>
      <stop offset="1" stop-color="#1d3e72"/>
    </radialGradient>
    <linearGradient id="sphere" x1="10" y1="10" x2="54" y2="54" gradientUnits="userSpaceOnUse">
      <stop offset="0" stop-color="#f8fdff"/>
      <stop offset="0.4" stop-color="#cbe4ff"/>
      <stop offset="0.75" stop-color="#8cb6ea"/>
      <stop offset="1" stop-color="#5b7ea8"/>
    </linearGradient>
    <clipPath id="clipSphere">
      <circle cx="32" cy="33" r="21"/>
    </clipPath>
  </defs>

  <circle cx="32" cy="33" r="29" fill="url(#bgGlow)"/>

  <path d="M32 7 L32 12" stroke="#cfdaf0" stroke-width="2" stroke-linecap="round"/>
  <path d="M25 12 H39" stroke="#cfdaf0" stroke-width="2" stroke-linecap="round"/>

  <circle cx="32" cy="33" r="21" fill="url(#sphere)" stroke="#e9f6ff" stroke-width="1.5"/>
  <g clip-path="url(#clipSphere)" stroke="#e6f4ff" stroke-width="1.1" opacity="0.95">
    <path d="M11 33 H53"/>
    <path d="M13 27 H51"/>
    <path d="M13 39 H51"/>
    <path d="M16 21 H48"/>
    <path d="M16 45 H48"/>

    <path d="M32 12 V54"/>
    <path d="M25 12 V54"/>
    <path d="M39 12 V54"/>
    <path d="M19 14 V52"/>
    <path d="M45 14 V52"/>

    <path d="M14 20 C26 22 38 22 50 20" fill="none"/>
    <path d="M14 46 C26 44 38 44 50 46" fill="none"/>
  </g>

  <circle cx="25" cy="24" r="4.5" fill="#ffffff" opacity="0.78"/>
  <circle cx="22" cy="18" r="1.6" fill="#ffffff" opacity="0.9"/>
</svg>
